<?xml version="1.0" standalone="no"?>
<!DOCTYPE svg PUBLIC "-//W3C//DTD SVG 20010904//EN"
 "http://www.w3.org/TR/2001/REC-SVG-20010904/DTD/svg10.dtd">
<svg version="1.0" xmlns="http://www.w3.org/2000/svg"
 width="2160.000000pt" height="2160.000000pt" viewBox="0 0 2160.000000 2160.000000"
 preserveAspectRatio="xMidYMid meet">

<g transform="translate(0.000000,2160.000000) scale(0.100000,-0.100000)"
fill="#000000" stroke="none">
<path d="M5750 19030 c-232 -21 -396 -106 -500 -260 -69 -101 -93 -188 -110
-394 -15 -188 -14 -6266 1 -6338 16 -73 42 -120 86 -157 77 -64 21 -61 1304
-61 793 0 1184 3 1218 11 97 21 171 98 193 202 11 51 9 65 -16 164 -52 203
-58 241 -53 373 3 111 8 137 39 227 51 149 108 241 213 349 186 189 413 275
689 261 228 -12 400 -98 585 -293 95 -100 151 -191 195 -312 30 -85 31 -90 30
-262 -1 -148 -4 -187 -22 -250 -49 -171 -55 -204 -42 -264 14 -67 59 -132 115
-163 94 -53 96 -53 1154 -53 l981 0 0 -817 0 -818 -173 -1 c-136 0 -192 -5
-270 -22 -203 -45 -357 -109 -523 -220 -303 -204 -496 -471 -578 -802 -71
-286 -74 -490 -10 -743 79 -316 306 -630 594 -822 257 -172 520 -250 817 -243
l141 3 5 -810 c5 -909 4 -891 78 -1044 101 -206 275 -303 594 -330 152 -14
5682 -14 5872 -1 252 17 377 64 498 185 80 79 122 156 157 280 l23 80 0 985
c0 915 -1 990 -18 1050 -24 86 -66 148 -124 185 -44 28 -55 30 -138 29 -70 0
-110 -7 -180 -29 -78 -25 -110 -29 -240 -32 -267 -8 -427 48 -601 210 -95 89
-157 171 -210 282 -57 117 -84 224 -91 360 -7 133 5 214 46 320 78 201 275
407 484 505 111 52 194 70 333 70 123 0 186 -9 318 -47 124 -35 200 -34 274 3
36 19 66 44 83 69 61 88 57 -44 64 2380 7 2212 6 2308 -25 2417 -16 56 -69
119 -125 147 -69 36 -176 35 -295 -3 -330 -104 -664 -21 -911 226 -181 181
-262 401 -246 671 12 206 95 381 266 560 175 183 336 251 596 250 142 0 199
-8 365 -53 74 -20 93 -22 146 -13 111 19 176 83 211 204 17 60 18 130 18 1054
0 915 -1 996 -18 1066 -21 89 -70 197 -118 256 -72 90 -219 177 -354 210 -66
16 -449 18 -6390 19 -3476 1 -6358 -2 -6405 -6z m6060 -1522 c0 -628 4 -1006
10 -1047 20 -122 71 -188 167 -217 67 -20 111 -17 241 16 278 71 490 57 692
-45 83 -42 138 -82 219 -159 208 -200 301 -446 271 -718 -39 -353 -271 -637
-614 -754 -162 -56 -320 -54 -535 7 -96 26 -126 31 -191 27 -93 -5 -156 -37
-197 -99 -58 -89 -57 -54 -61 -1151 l-3 -1008 -812 0 -812 0 0 183 c-1 156 -4
195 -24 277 -108 438 -357 775 -710 958 -251 131 -565 196 -828 171 -188 -17
-399 -77 -533 -152 -224 -125 -397 -287 -538 -506 -150 -232 -228 -521 -220
-814 l3 -117 -822 0 -823 0 1 3003 c0 1651 4 3024 8 3051 5 29 16 55 27 63 15
11 538 13 3051 13 l3033 0 0 -982z m6657 958 l28 -24 4 -224 c2 -122 0 -480
-4 -794 l-7 -571 -187 -6 c-254 -7 -417 -45 -616 -144 -138 -69 -230 -137
-355 -262 -214 -214 -332 -436 -403 -751 -29 -131 -31 -414 -3 -539 96 -441
384 -817 771 -1010 202 -101 396 -145 643 -146 l162 0 0 -817 0 -817 -1007 -4
c-912 -2 -1013 -4 -1063 -20 -81 -25 -130 -64 -164 -130 -41 -80 -40 -146 5
-297 32 -110 34 -122 34 -275 0 -140 -3 -169 -23 -235 -44 -140 -115 -262
-211 -364 -110 -116 -218 -185 -371 -238 -92 -31 -100 -32 -265 -33 -154 0
-177 2 -240 24 -183 63 -342 174 -467 330 -179 223 -220 475 -133 826 28 114
31 162 11 228 -18 60 -49 102 -97 133 -86 54 -81 54 -1156 54 l-993 0 0 818 0
817 65 -3 c149 -8 405 30 574 84 338 110 645 383 816 724 50 101 77 176 113
319 24 96 27 124 27 291 0 140 -4 205 -18 267 -69 320 -176 523 -386 734 -176
176 -383 305 -596 372 -159 50 -239 61 -422 62 l-173 0 0 823 0 822 3039 0
3040 0 28 -24z m-4475 -6720 c-9 -138 25 -372 79 -551 127 -415 457 -757 870
-903 173 -61 274 -77 484 -77 208 0 281 11 450 67 400 133 778 513 908 913 57
174 83 367 71 523 l-6 92 821 0 821 0 0 -817 0 -818 -168 -1 c-179 -1 -289
-18 -454 -70 -294 -93 -553 -292 -739 -568 -160 -238 -232 -469 -233 -751 0
-312 82 -590 248 -839 266 -399 684 -612 1214 -619 l133 -2 -3 -798 -3 -799
-24 -19 c-23 -19 -85 -19 -3036 -19 -2855 0 -3014 1 -3034 18 -20 17 -21 20
-29 1022 -8 937 -10 1008 -27 1055 -25 68 -97 138 -157 153 -71 18 -103 15
-228 -22 -275 -81 -471 -71 -686 34 -277 135 -466 374 -505 639 -14 98 -7 260
16 366 31 143 119 289 251 415 133 126 273 204 426 236 119 25 311 15 478 -25
157 -38 212 -37 290 5 57 31 103 94 119 164 7 29 11 395 11 1053 l0 1007 823
0 823 0 -4 -64z"/>
<path d="M6020 11380 c-340 -47 -612 -181 -846 -414 -199 -200 -320 -426 -385
-718 -15 -66 -22 -146 -26 -275 l-6 -183 -711 0 c-774 0 -945 -7 -1063 -45
-240 -76 -377 -271 -413 -590 -13 -115 -13 -5685 0 -5905 10 -171 27 -254 72
-347 82 -170 224 -274 433 -320 62 -14 413 -16 3105 -17 l3035 -1 88 22 c106
28 177 60 255 117 99 73 176 193 213 332 19 72 22 121 30 534 6 250 8 707 7
1015 -4 620 -4 620 -70 699 -76 92 -182 107 -381 54 -114 -31 -132 -33 -282
-32 -148 0 -167 2 -245 28 -291 96 -486 288 -589 578 l-36 103 0 175 c1 173 1
176 33 259 84 220 256 422 436 513 216 109 445 125 706 47 125 -37 202 -36
278 3 51 26 103 92 123 156 17 54 30 816 26 1492 -4 551 -5 578 -26 659 -41
159 -120 275 -240 355 -79 53 -121 70 -246 98 -86 20 -126 21 -886 25 l-795 5
4 117 c9 258 -62 537 -194 762 -253 433 -689 689 -1199 704 -77 2 -169 0 -205
-5z m285 -540 c194 -28 380 -132 543 -304 83 -88 140 -183 183 -306 21 -59 23
-83 24 -250 0 -182 0 -187 -34 -300 -44 -147 -45 -208 -5 -286 23 -44 41 -64
85 -91 101 -62 104 -62 1157 -63 l943 0 24 -25 25 -24 0 -793 0 -793 -112 3
c-423 12 -818 -150 -1111 -457 -177 -186 -285 -398 -344 -680 -23 -108 -27
-151 -27 -306 -1 -154 2 -195 22 -285 61 -272 182 -488 387 -695 300 -302 647
-445 1055 -433 l130 3 -5 -794 c-5 -876 -1 -834 -67 -846 -18 -3 -1379 -4
-3025 -3 -2857 3 -2993 4 -3010 21 -17 17 -18 153 -21 3000 -2 1640 0 3001 3
3025 4 24 15 52 26 63 18 18 45 19 987 19 1045 0 1034 0 1126 54 57 33 102
108 112 183 5 43 0 83 -26 191 -38 160 -51 353 -31 468 32 184 138 352 315
498 198 164 441 238 671 206z"/>
</g>
</svg>
