<svg width="24" height="29" viewBox="0 0 24 29" fill="none" xmlns="http://www.w3.org/2000/svg">
<path d="M12 29C5.33203 27.3724 0 20.4615 0 13.1818V5.27273L12 0L24 5.27273V13.1818C24 20.464 18.6686 27.3724 12 29ZM2.4 6.59091V13.1818C2.4686 16.2296 3.44446 19.1688 5.17824 21.5494C6.91201 23.9301 9.30818 25.6211 12 26.3636C14.6918 25.621 17.0879 23.9299 18.8216 21.5493C20.5554 19.1687 21.5313 16.2296 21.6 13.1818V6.59091L12 2.63636L2.4 6.59091Z" fill="black"/>
<path d="M12 13.1818C13.6569 13.1818 15 11.7064 15 9.88637C15 8.06634 13.6569 6.59091 12 6.59091C10.3431 6.59091 9 8.06634 9 9.88637C9 11.7064 10.3431 13.1818 12 13.1818Z" fill="black"/>
<path d="M6 18.4545C6.59146 19.6385 7.4587 20.6287 8.51296 21.3235C9.56721 22.0184 10.7706 22.393 12 22.4091C13.2294 22.393 14.4328 22.0183 15.487 21.3235C16.5413 20.6286 17.4085 19.6385 18 18.4545C17.97 15.9558 13.99 14.5 12 14.5C10 14.5 6.03 15.9558 6 18.4545Z" fill="black"/>
</svg>
