<svg width="21" height="29" viewBox="0 0 21 29" fill="none" xmlns="http://www.w3.org/2000/svg">
<path d="M9.6627 0.290968C10.1536 0.290968 10.5619 0.644718 10.6466 1.11122L10.6627 1.29097V7.29097C10.6627 9.70962 8.94538 11.7272 6.66357 12.1908L6.6627 27.291C6.6627 27.8433 6.21499 28.291 5.6627 28.291C5.17178 28.291 4.76349 27.9372 4.67882 27.4707L4.6627 27.291L4.66385 12.1912C2.48975 11.7504 0.827636 9.899 0.67427 7.63374L0.662704 7.29097V1.29097C0.662704 0.738683 1.11042 0.290968 1.6627 0.290968C2.15362 0.290968 2.56192 0.644718 2.64659 1.11122L2.6627 1.29097V7.29097C2.6627 8.59741 3.49779 9.7088 4.66329 10.1205L4.6627 1.29097C4.6627 0.738683 5.11042 0.290968 5.6627 0.290968C6.15362 0.290968 6.56192 0.644718 6.64659 1.11122L6.6627 1.29097L6.66411 10.1198C7.73899 9.73924 8.53242 8.76343 8.64813 7.58859L8.6627 7.29097V1.29097C8.6627 0.738683 9.11042 0.290968 9.6627 0.290968ZM19.6627 0.290968C20.1536 0.290968 20.5619 0.644718 20.6466 1.11122L20.6627 1.29097V27.291C20.6627 27.8433 20.215 28.291 19.6627 28.291C19.1718 28.291 18.7635 27.9372 18.6788 27.4707L18.6627 27.291V16.291H15.6627C15.1718 16.291 14.7635 15.9372 14.6788 15.4707L14.6627 15.291V5.29097C14.6627 2.52954 16.9013 0.290968 19.6627 0.290968ZM18.6627 14.291V2.46167C17.5871 2.84183 16.7931 3.81793 16.6773 4.99322L16.6627 5.29097V14.291H18.6627Z" fill="black"/>
</svg>
