<svg width="24" height="24" viewBox="0 0 24 24" fill="none" xmlns="http://www.w3.org/2000/svg">
<path d="M18.99 17.26H15.41M17.2 15.51V19.1M17.2 22C18.473 22 19.6939 21.4943 20.5941 20.5941C21.4943 19.6939 22 18.473 22 17.2C22 15.927 21.4943 14.7061 20.5941 13.8059C19.6939 12.9057 18.473 12.4 17.2 12.4C15.927 12.4 14.7061 12.9057 13.8059 13.8059C12.9057 14.7061 12.4 15.927 12.4 17.2C12.4 18.473 12.9057 19.6939 13.8059 20.5941C14.7061 21.4943 15.927 22 17.2 22Z" stroke="black" stroke-width="1.5" stroke-miterlimit="10" stroke-linecap="round" stroke-linejoin="round"/>
<path d="M22 8.69C22 10.66 21.49 12.4 20.69 13.91C20.242 13.4336 19.7013 13.0538 19.1011 12.7942C18.5009 12.5345 17.854 12.4003 17.2 12.4C14.55 12.4 12.4 14.55 12.4 17.2C12.4 18.43 12.87 19.55 13.63 20.4C13.26 20.57 12.92 20.71 12.62 20.81C12.28 20.93 11.72 20.93 11.38 20.81C8.48 19.82 2 15.69 2 8.69C2 5.6 4.49 3.1 7.56 3.1C9.37 3.1 10.99 3.98 12 5.33C12.5159 4.63881 13.1857 4.07739 13.9565 3.69029C14.7272 3.3032 15.5775 3.10108 16.44 3.1C19.51 3.1 22 5.6 22 8.69Z" stroke="black" stroke-width="1.5" stroke-linecap="round" stroke-linejoin="round"/>
</svg>
