<svg width="34" height="31" viewBox="0 0 34 31" fill="none" xmlns="http://www.w3.org/2000/svg">
<path d="M14 29C14.8284 29 15.5 28.3284 15.5 27.5C15.5 26.6716 14.8284 26 14 26C13.1716 26 12.5 26.6716 12.5 27.5C12.5 28.3284 13.1716 29 14 29Z" stroke="black" stroke-width="3" stroke-linecap="round" stroke-linejoin="round"/>
<path d="M26 29C26.8284 29 27.5 28.3284 27.5 27.5C27.5 26.6716 26.8284 26 26 26C25.1716 26 24.5 26.6716 24.5 27.5C24.5 28.3284 25.1716 29 26 29Z" stroke="black" stroke-width="3" stroke-linecap="round" stroke-linejoin="round"/>
<path d="M2 2H7.25C7.25 2 7.86941 4.74265 8.26629 6.5C9.05933 10.0115 10.1485 14.8343 10.7875 17.6638C11.0964 19.0315 12.311 20 13.7132 20H26.5936C27.9997 20 29.217 19.0233 29.522 17.6508L32 6.5" stroke="black" stroke-width="3" stroke-linecap="round" stroke-linejoin="round"/>
<path d="M32 6.5H8.75" stroke="black" stroke-width="3" stroke-linecap="round" stroke-linejoin="round"/>
</svg>
