<svg width="22" height="18" viewBox="0 0 22 18" fill="none" xmlns="http://www.w3.org/2000/svg">
<path d="M21 4.73685L12.8 0.448755C11.7 -0.149585 10.3 -0.149585 9.2 0.448755L1 4.73685C0.4 5.03602 0 5.73408 0 6.43214C0 7.1302 0.4 7.7285 1 8.1274L3.4 9.4238V12.9141C3.4 14.0111 4 15.0083 5 15.5069L9.3 17.7008C9.8 17.9003 10.4 18 11 18C11.6 18 12.2 17.9003 12.7 17.6011L17 15.4072C18 14.9086 18.6 13.9114 18.6 12.8144V11.7175C18.6 11.1191 18.2 10.7202 17.6 10.7202C17 10.7202 16.6 11.1191 16.6 11.7175V12.8144C16.6 13.1136 16.4 13.5125 16.1 13.6122L11.8 15.8061C11.3 16.1053 10.7 16.1053 10.2 15.8061L5.9 13.6122C5.6 13.4128 5.4 13.1136 5.4 12.8144V10.4211L9.2 12.4155C9.8 12.7147 10.4 12.8144 11 12.8144C11.6 12.8144 12.2 12.7147 12.8 12.4155L21 8.1274C21.6 7.8283 22 7.1302 22 6.43214C22 5.73408 21.6 5.13574 21 4.73685ZM11.9 10.6205C11.4 10.9197 10.7 10.9197 10.1 10.6205L2.1 6.43214L10.1 2.24378C10.7 1.94461 11.3 1.94461 11.9 2.24378L19.9 6.43214L11.9 10.6205Z" fill="black"/>
</svg>
