<?xml version="1.0" standalone="no"?>
<!DOCTYPE svg PUBLIC "-//W3C//DTD SVG 20010904//EN"
 "http://www.w3.org/TR/2001/REC-SVG-20010904/DTD/svg10.dtd">
<svg version="1.0" xmlns="http://www.w3.org/2000/svg"
 width="1795.000000pt" height="1796.000000pt" viewBox="0 0 1795.000000 1796.000000"
 preserveAspectRatio="xMidYMid meet">

<g transform="translate(0.000000,1796.000000) scale(0.100000,-0.100000)"
fill="#000000" stroke="none">
<path d="M3855 17310 c-90 -9 -185 -35 -249 -67 -193 -97 -309 -246 -358 -459
l-22 -99 -4 -3215 c-2 -2495 0 -3228 9 -3274 15 -73 59 -139 124 -188 95 -71
45 -69 1370 -66 1336 3 1237 -3 1335 85 120 108 136 243 59 493 -26 84 -35
227 -20 312 59 337 262 573 584 675 73 24 98 27 237 27 143 1 162 -1 241 -27
240 -77 450 -283 540 -528 34 -93 34 -96 33 -254 -1 -153 -2 -165 -37 -284
-53 -180 -48 -265 21 -356 50 -65 116 -109 198 -129 62 -16 161 -18 1042 -23
l972 -6 0 -752 0 -752 -137 -6 c-303 -13 -545 -87 -773 -237 -250 -165 -415
-343 -537 -578 -51 -97 -68 -144 -101 -277 -52 -208 -66 -324 -59 -489 13
-279 98 -524 267 -764 61 -87 216 -250 308 -325 262 -213 586 -327 929 -327
l103 0 0 -652 c1 -930 8 -1017 92 -1187 63 -130 226 -262 379 -307 169 -50
-20 -47 3129 -51 1930 -3 2970 0 3057 6 256 20 400 77 525 210 89 94 133 167
167 274 l26 82 0 1040 0 1040 -22 58 c-47 124 -134 204 -247 227 -77 16 -152
7 -274 -32 -91 -29 -106 -31 -252 -31 -149 -1 -159 1 -250 31 -271 93 -463
309 -541 609 -26 104 -28 309 -4 386 32 97 92 212 147 279 245 299 572 403
913 292 62 -20 103 -26 180 -27 125 -2 169 11 234 69 63 57 98 128 111 224 6
47 9 917 7 2360 -2 2185 -3 2287 -20 2335 -40 110 -117 181 -229 211 -77 20
-105 18 -272 -23 -261 -63 -442 -49 -634 48 -210 108 -338 255 -424 489 -29
77 -37 338 -15 427 18 69 89 218 138 290 101 148 259 266 429 321 121 40 355
31 534 -20 137 -39 236 -37 308 5 57 33 125 107 149 162 38 85 40 167 37 1200
l-3 1000 -28 82 c-83 245 -313 431 -572 463 -83 10 -12749 10 -12850 0z m6077
-1667 c4 -1141 -2 -1067 84 -1163 66 -72 110 -93 215 -98 77 -4 100 0 200 29
109 32 121 34 284 34 189 0 213 -5 358 -76 201 -99 356 -278 429 -496 32 -94
33 -104 32 -243 -1 -127 -4 -155 -27 -227 -73 -231 -210 -398 -415 -506 -194
-102 -372 -117 -614 -53 -143 37 -238 46 -308 26 -95 -26 -183 -116 -216 -220
-16 -51 -18 -133 -22 -1047 l-3 -993 -753 0 -753 0 -6 168 c-4 130 -11 191
-31 277 -31 129 -33 137 -99 280 -126 276 -316 496 -554 644 -120 74 -177 100
-318 146 -216 71 -270 79 -515 79 -200 0 -222 -2 -322 -27 -60 -14 -143 -40
-185 -57 -43 -16 -82 -30 -86 -30 -19 0 -225 -127 -281 -173 -243 -198 -414
-428 -505 -677 -60 -166 -82 -280 -88 -462 l-6 -168 -758 0 -759 0 0 3020 0
3020 3010 0 3009 0 3 -1007z m6706 241 l2 -762 -157 -4 c-240 -8 -413 -49
-608 -145 -149 -74 -249 -147 -385 -283 -166 -166 -304 -386 -373 -590 -33
-99 -69 -308 -74 -430 -18 -419 157 -836 477 -1136 277 -261 582 -388 958
-401 l162 -6 0 -758 0 -759 -947 0 c-611 0 -971 -4 -1013 -11 -88 -14 -160
-48 -215 -104 -108 -107 -120 -221 -46 -435 23 -68 25 -89 26 -240 l0 -165
-43 -107 c-100 -248 -257 -409 -492 -502 -106 -42 -311 -57 -447 -31 -159 29
-376 169 -491 317 -173 221 -207 447 -120 808 24 99 21 214 -6 271 -26 54 -82
116 -133 146 -91 53 -81 53 -1130 53 l-973 0 0 759 0 758 148 6 c306 12 608
115 833 284 88 66 220 193 293 283 55 67 178 259 189 295 3 11 22 60 42 108
108 266 126 623 45 909 -81 287 -196 477 -410 681 -291 277 -653 427 -1027
427 l-113 0 0 765 0 765 3013 -2 3012 -3 3 -761z m-4518 -6024 c0 -177 45
-411 115 -598 36 -99 114 -239 187 -337 179 -242 475 -452 745 -531 345 -100
590 -97 935 11 333 104 695 428 872 781 91 182 146 425 146 646 l0 98 760 0
760 0 0 -757 0 -758 -123 -2 c-337 -4 -654 -112 -898 -305 -208 -164 -384
-395 -490 -643 -67 -156 -108 -443 -90 -630 11 -107 47 -303 72 -385 28 -90
110 -255 177 -357 271 -409 687 -640 1190 -660 l163 -6 -5 -756 c-2 -416 -5
-757 -5 -758 -1 -2 -1355 -3 -3011 -3 l-3010 0 0 918 c-1 504 -5 961 -9 1015
-11 123 -40 186 -116 256 -47 42 -65 52 -126 65 -82 19 -99 17 -274 -32 -123
-35 -138 -37 -275 -37 -134 0 -152 2 -230 29 -102 34 -145 56 -225 109 -297
200 -408 468 -349 841 31 192 147 371 329 505 74 55 120 79 207 111 163 60
317 63 521 11 146 -37 200 -43 272 -30 118 21 222 123 251 246 11 47 14 243
14 1036 l0 977 760 0 760 0 0 -70z"/>
<path d="M4087 9610 c-263 -55 -434 -126 -611 -253 -309 -221 -528 -554 -596
-907 -23 -121 -44 -340 -37 -386 l5 -31 -751 -6 c-796 -5 -874 -10 -1007 -53
-199 -66 -353 -239 -417 -469 l-28 -100 0 -3075 0 -3075 22 -88 c27 -105 48
-147 121 -250 84 -117 201 -198 362 -248 l75 -24 3045 -3 c1939 -2 3074 1
3125 7 175 22 315 89 435 210 87 88 138 176 170 296 29 108 39 451 39 1393 1
794 0 808 -63 900 -60 86 -166 142 -272 142 -23 0 -86 -12 -140 -26 -211 -56
-321 -66 -464 -40 -78 14 -227 71 -289 111 -173 109 -307 297 -363 505 -34
130 -33 305 4 420 49 150 150 306 262 404 145 127 322 190 531 190 119 -1 159
-7 355 -59 174 -46 341 34 401 194 11 31 25 99 30 151 6 56 9 490 7 1045 l-3
950 -28 90 c-84 269 -247 419 -522 480 -95 21 -501 34 -1136 34 l-506 1 -6
163 c-7 180 -27 282 -92 462 -121 334 -400 646 -725 810 -111 56 -293 113
-450 140 -122 21 -370 19 -483 -5z m438 -666 c136 -28 353 -165 457 -289 126
-150 173 -291 173 -510 -1 -128 -4 -152 -38 -285 -41 -161 -43 -182 -23 -259
28 -103 110 -184 229 -225 61 -21 76 -21 1047 -26 l985 -5 2 -755 3 -755 -141
-2 c-516 -9 -998 -289 -1267 -736 -72 -118 -125 -260 -168 -443 -26 -111 -28
-133 -28 -339 0 -215 1 -222 31 -335 46 -168 100 -293 177 -411 133 -202 254
-329 446 -467 240 -172 523 -262 823 -262 l117 0 -2 -762 -3 -763 -3005 0
-3005 0 -3 3018 -2 3017 22 1 c13 0 448 0 968 -1 1047 -2 1020 -3 1123 62 58
37 121 117 136 173 19 69 13 156 -20 281 -36 137 -49 327 -30 429 35 191 146
362 316 489 215 161 429 211 680 160z"/>
</g>
</svg>
