<svg width="24" height="23" viewBox="0 0 24 23" fill="none" xmlns="http://www.w3.org/2000/svg">
<path fill-rule="evenodd" clip-rule="evenodd" d="M8 2C5.37764 2 3 4.53612 3 8C3 11.0161 4.80272 13.3289 7.00001 13.8764V9.5352L4.44531 7.83207L5.55471 6.16796L7.72267 7.61327L9.16796 5.44531L10.832 6.55471L9.00001 9.3028V13.8764C11.1973 13.3289 13 11.0161 13 8C13 4.53612 10.6224 2 8 2ZM1 8C1 11.9047 3.50657 15.3605 7.00001 15.9208V21H0V23H24V21H21V19L20 18H12L11 19V21H9.00001V15.9208C12.4935 15.3605 15 11.9047 15 8C15 3.73189 12.0051 0 8 0C3.99495 0 1 3.73189 1 8ZM13 21H19V20H13V21Z" fill="black"/>
</svg>
