<?xml version="1.0" encoding="UTF-8" standalone="no"?>
<!DOCTYPE svg PUBLIC "-//W3C//DTD SVG 1.1//EN" "http://www.w3.org/Graphics/SVG/1.1/DTD/svg11.dtd">
<svg xmlns="http://www.w3.org/2000/svg" version="1.1" viewBox="0 0 512 512">
<g stroke-width="2.00" fill="none" stroke-linecap="butt">
<path stroke="#808080" vector-effect="non-scaling-stroke" d="
  M 124.94 202.57
  Q 125.06 323.66 124.98 444.75
  C 124.98 450.77 129.39 452.50 134.88 452.50
  Q 270.72 452.50 406.56 452.50
  Q 416.91 452.50 421.37 451.50
  C 435.69 448.31 447.26 436.99 451.09 422.98
  Q 452.47 417.92 452.48 408.26
  Q 452.52 363.86 452.49 319.45
  C 452.49 311.86 449.20 310.00 441.81 310.01
  Q 414.72 310.03 387.52 309.95
  A 0.51 0.50 0.0 0 1 387.01 309.45
  Q 386.99 188.22 387.01 67.00
  C 387.01 61.27 382.42 59.50 377.19 59.50
  Q 241.51 59.50 105.83 59.50
  Q 95.65 59.50 91.23 60.46
  C 76.55 63.66 64.75 75.43 60.90 89.76
  Q 59.52 94.87 59.52 104.51
  Q 59.48 148.35 59.51 192.19
  C 59.51 200.27 62.65 202.00 70.55 201.99
  Q 97.50 201.96 124.43 202.06
  A 0.51 0.51 0.0 0 1 124.94 202.57"
/>
<path stroke="#808080" vector-effect="non-scaling-stroke" d="
  M 140.49 436.73
  A 0.51 0.51 -89.4 0 0 141.00 437.25
  L 379.99 437.25
  Q 380.62 437.25 380.25 436.75
  C 373.76 428.02 371.76 419.98 371.76 408.48
  Q 371.74 241.77 371.75 75.07
  A 0.31 0.31 0.0 0 0 371.44 74.76
  L 132.53 74.78
  Q 132.04 74.78 132.32 75.19
  C 138.32 84.03 140.25 91.82 140.25 103.14
  Q 140.25 258.79 140.25 414.43
  C 140.25 420.70 140.61 429.21 140.49 436.73"
/>
<path stroke="#808080" vector-effect="non-scaling-stroke" d="
  M 124.38 94.45
  C 118.92 69.26 83.80 68.51 76.21 92.63
  Q 74.73 97.33 74.73 108.07
  Q 74.75 146.99 74.77 185.98
  A 0.50 0.49 0.0 0 0 75.27 186.47
  L 124.58 186.52
  A 0.40 0.40 0.0 0 0 124.98 186.12
  Q 125.04 148.39 124.97 110.61
  Q 124.94 97.02 124.38 94.45"
/>
<path stroke="#808080" vector-effect="non-scaling-stroke" d="
  M 388.54 419.95
  C 396.68 442.28 428.40 443.06 435.77 420.11
  Q 437.27 415.46 437.26 404.70
  Q 437.25 365.40 437.23 326.04
  A 0.51 0.50 90.0 0 0 436.73 325.53
  L 387.36 325.52
  A 0.31 0.31 -89.0 0 0 387.05 325.82
  Q 386.87 367.29 387.11 408.86
  Q 387.15 416.14 388.54 419.95"
/>
<path stroke="#808080" vector-effect="non-scaling-stroke" d="
  M 243.12 169.98
  A 30.74 30.74 0.0 0 0 212.38 139.24
  A 30.74 30.74 0.0 0 0 181.64 169.98
  A 30.74 30.74 0.0 0 0 212.38 200.72
  A 30.74 30.74 0.0 0 0 243.12 169.98"
/>
<path stroke="#808080" vector-effect="non-scaling-stroke" d="
  M 321.3250 159.0945
  A 7.64 7.64 0.0 0 0 321.3250 148.2899
  L 321.2401 148.2050
  A 7.64 7.64 0.0 0 0 310.4355 148.2050
  L 190.5950 268.0455
  A 7.64 7.64 0.0 0 0 190.5950 278.8501
  L 190.6799 278.9350
  A 7.64 7.64 0.0 0 0 201.4845 278.9350
  L 321.3250 159.0945"
/>
<path stroke="#808080" vector-effect="non-scaling-stroke" d="
  M 330.35 257.21
  A 30.73 30.73 0.0 0 0 299.62 226.48
  A 30.73 30.73 0.0 0 0 268.89 257.21
  A 30.73 30.73 0.0 0 0 299.62 287.94
  A 30.73 30.73 0.0 0 0 330.35 257.21"
/>
<path stroke="#808080" vector-effect="non-scaling-stroke" d="
  M 356.01 383.17
  A 7.66 7.66 0.0 0 0 348.35 375.51
  L 163.51 375.51
  A 7.66 7.66 0.0 0 0 155.85 383.17
  L 155.85 383.33
  A 7.66 7.66 0.0 0 0 163.51 390.99
  L 348.35 390.99
  A 7.66 7.66 0.0 0 0 356.01 383.33
  L 356.01 383.17"
/>
<path stroke="#808080" vector-effect="non-scaling-stroke" d="
  M 356.00 413.89
  A 7.56 7.56 0.0 0 0 348.44 406.33
  L 163.56 406.33
  A 7.56 7.56 0.0 0 0 156.00 413.89
  L 156.00 414.19
  A 7.56 7.56 0.0 0 0 163.56 421.75
  L 348.44 421.75
  A 7.56 7.56 0.0 0 0 356.00 414.19
  L 356.00 413.89"
/>
<path stroke="#808080" vector-effect="non-scaling-stroke" d="
  M 227.71 169.97
  A 15.32 15.32 0.0 0 0 212.39 154.65
  A 15.32 15.32 0.0 0 0 197.07 169.97
  A 15.32 15.32 0.0 0 0 212.39 185.29
  A 15.32 15.32 0.0 0 0 227.71 169.97"
/>
<path stroke="#808080" vector-effect="non-scaling-stroke" d="
  M 314.94 257.20
  A 15.32 15.32 0.0 0 0 299.62 241.88
  A 15.32 15.32 0.0 0 0 284.30 257.20
  A 15.32 15.32 0.0 0 0 299.62 272.52
  A 15.32 15.32 0.0 0 0 314.94 257.20"
/>
</g>
<path fill="#ffffff" d="
  M 0.00 0.00
  L 512.00 0.00
  L 512.00 512.00
  L 0.00 512.00
  L 0.00 0.00
  Z
  M 124.94 202.57
  Q 125.06 323.66 124.98 444.75
  C 124.98 450.77 129.39 452.50 134.88 452.50
  Q 270.72 452.50 406.56 452.50
  Q 416.91 452.50 421.37 451.50
  C 435.69 448.31 447.26 436.99 451.09 422.98
  Q 452.47 417.92 452.48 408.26
  Q 452.52 363.86 452.49 319.45
  C 452.49 311.86 449.20 310.00 441.81 310.01
  Q 414.72 310.03 387.52 309.95
  A 0.51 0.50 0.0 0 1 387.01 309.45
  Q 386.99 188.22 387.01 67.00
  C 387.01 61.27 382.42 59.50 377.19 59.50
  Q 241.51 59.50 105.83 59.50
  Q 95.65 59.50 91.23 60.46
  C 76.55 63.66 64.75 75.43 60.90 89.76
  Q 59.52 94.87 59.52 104.51
  Q 59.48 148.35 59.51 192.19
  C 59.51 200.27 62.65 202.00 70.55 201.99
  Q 97.50 201.96 124.43 202.06
  A 0.51 0.51 0.0 0 1 124.94 202.57
  Z"
/>
<path fill="#000000" d="
  M 124.43 202.06
  Q 97.50 201.96 70.55 201.99
  C 62.65 202.00 59.51 200.27 59.51 192.19
  Q 59.48 148.35 59.52 104.51
  Q 59.52 94.87 60.90 89.76
  C 64.75 75.43 76.55 63.66 91.23 60.46
  Q 95.65 59.50 105.83 59.50
  Q 241.51 59.50 377.19 59.50
  C 382.42 59.50 387.01 61.27 387.01 67.00
  Q 386.99 188.22 387.01 309.45
  A 0.51 0.50 0.0 0 0 387.52 309.95
  Q 414.72 310.03 441.81 310.01
  C 449.20 310.00 452.49 311.86 452.49 319.45
  Q 452.52 363.86 452.48 408.26
  Q 452.47 417.92 451.09 422.98
  C 447.26 436.99 435.69 448.31 421.37 451.50
  Q 416.91 452.50 406.56 452.50
  Q 270.72 452.50 134.88 452.50
  C 129.39 452.50 124.98 450.77 124.98 444.75
  Q 125.06 323.66 124.94 202.57
  A 0.51 0.51 0.0 0 0 124.43 202.06
  Z
  M 140.49 436.73
  A 0.51 0.51 -89.4 0 0 141.00 437.25
  L 379.99 437.25
  Q 380.62 437.25 380.25 436.75
  C 373.76 428.02 371.76 419.98 371.76 408.48
  Q 371.74 241.77 371.75 75.07
  A 0.31 0.31 0.0 0 0 371.44 74.76
  L 132.53 74.78
  Q 132.04 74.78 132.32 75.19
  C 138.32 84.03 140.25 91.82 140.25 103.14
  Q 140.25 258.79 140.25 414.43
  C 140.25 420.70 140.61 429.21 140.49 436.73
  Z
  M 124.38 94.45
  C 118.92 69.26 83.80 68.51 76.21 92.63
  Q 74.73 97.33 74.73 108.07
  Q 74.75 146.99 74.77 185.98
  A 0.50 0.49 0.0 0 0 75.27 186.47
  L 124.58 186.52
  A 0.40 0.40 0.0 0 0 124.98 186.12
  Q 125.04 148.39 124.97 110.61
  Q 124.94 97.02 124.38 94.45
  Z
  M 388.54 419.95
  C 396.68 442.28 428.40 443.06 435.77 420.11
  Q 437.27 415.46 437.26 404.70
  Q 437.25 365.40 437.23 326.04
  A 0.51 0.50 90.0 0 0 436.73 325.53
  L 387.36 325.52
  A 0.31 0.31 -89.0 0 0 387.05 325.82
  Q 386.87 367.29 387.11 408.86
  Q 387.15 416.14 388.54 419.95
  Z"
/>
<path fill="#ffffff" d="
  M 140.49 436.73
  C 140.61 429.21 140.25 420.70 140.25 414.43
  Q 140.25 258.79 140.25 103.14
  C 140.25 91.82 138.32 84.03 132.32 75.19
  Q 132.04 74.78 132.53 74.78
  L 371.44 74.76
  A 0.31 0.31 0.1 0 1 371.75 75.07
  Q 371.74 241.77 371.76 408.48
  C 371.76 419.98 373.76 428.02 380.25 436.75
  Q 380.62 437.25 379.99 437.25
  L 141.00 437.25
  A 0.51 0.51 -89.4 0 1 140.49 436.73
  Z
  M 243.12 169.98
  A 30.74 30.74 0.0 0 0 212.38 139.24
  A 30.74 30.74 0.0 0 0 181.64 169.98
  A 30.74 30.74 0.0 0 0 212.38 200.72
  A 30.74 30.74 0.0 0 0 243.12 169.98
  Z
  M 321.3250 159.0945
  A 7.64 7.64 0.0 0 0 321.3250 148.2899
  L 321.2401 148.2050
  A 7.64 7.64 0.0 0 0 310.4355 148.2050
  L 190.5950 268.0455
  A 7.64 7.64 0.0 0 0 190.5950 278.8501
  L 190.6799 278.9350
  A 7.64 7.64 0.0 0 0 201.4845 278.9350
  L 321.3250 159.0945
  Z
  M 330.35 257.21
  A 30.73 30.73 0.0 0 0 299.62 226.48
  A 30.73 30.73 0.0 0 0 268.89 257.21
  A 30.73 30.73 0.0 0 0 299.62 287.94
  A 30.73 30.73 0.0 0 0 330.35 257.21
  Z
  M 356.01 383.17
  A 7.66 7.66 0.0 0 0 348.35 375.51
  L 163.51 375.51
  A 7.66 7.66 0.0 0 0 155.85 383.17
  L 155.85 383.33
  A 7.66 7.66 0.0 0 0 163.51 390.99
  L 348.35 390.99
  A 7.66 7.66 0.0 0 0 356.01 383.33
  L 356.01 383.17
  Z
  M 356.00 413.89
  A 7.56 7.56 0.0 0 0 348.44 406.33
  L 163.56 406.33
  A 7.56 7.56 0.0 0 0 156.00 413.89
  L 156.00 414.19
  A 7.56 7.56 0.0 0 0 163.56 421.75
  L 348.44 421.75
  A 7.56 7.56 0.0 0 0 356.00 414.19
  L 356.00 413.89
  Z"
/>
<path fill="#ffffff" d="
  M 76.21 92.63
  C 83.80 68.51 118.92 69.26 124.38 94.45
  Q 124.94 97.02 124.97 110.61
  Q 125.04 148.39 124.98 186.12
  A 0.40 0.40 0.0 0 1 124.58 186.52
  L 75.27 186.47
  A 0.50 0.49 0.0 0 1 74.77 185.98
  Q 74.75 146.99 74.73 108.07
  Q 74.73 97.33 76.21 92.63
  Z"
/>
<path fill="#000000" d="
  M 243.12 169.98
  A 30.74 30.74 0.0 0 1 212.38 200.72
  A 30.74 30.74 0.0 0 1 181.64 169.98
  A 30.74 30.74 0.0 0 1 212.38 139.24
  A 30.74 30.74 0.0 0 1 243.12 169.98
  Z
  M 227.71 169.97
  A 15.32 15.32 0.0 0 0 212.39 154.65
  A 15.32 15.32 0.0 0 0 197.07 169.97
  A 15.32 15.32 0.0 0 0 212.39 185.29
  A 15.32 15.32 0.0 0 0 227.71 169.97
  Z"
/>
<rect fill="#000000" x="-7.70" y="-92.38" transform="translate(255.96,213.57) rotate(45.0)" width="15.40" height="184.76" rx="7.64"/>
<circle fill="#ffffff" cx="212.39" cy="169.97" r="15.32"/>
<path fill="#000000" d="
  M 330.35 257.21
  A 30.73 30.73 0.0 0 1 299.62 287.94
  A 30.73 30.73 0.0 0 1 268.89 257.21
  A 30.73 30.73 0.0 0 1 299.62 226.48
  A 30.73 30.73 0.0 0 1 330.35 257.21
  Z
  M 314.94 257.20
  A 15.32 15.32 0.0 0 0 299.62 241.88
  A 15.32 15.32 0.0 0 0 284.30 257.20
  A 15.32 15.32 0.0 0 0 299.62 272.52
  A 15.32 15.32 0.0 0 0 314.94 257.20
  Z"
/>
<circle fill="#ffffff" cx="299.62" cy="257.20" r="15.32"/>
<path fill="#ffffff" d="
  M 435.77 420.11
  C 428.40 443.06 396.68 442.28 388.54 419.95
  Q 387.15 416.14 387.11 408.86
  Q 386.87 367.29 387.05 325.82
  A 0.31 0.31 -89.0 0 1 387.36 325.52
  L 436.73 325.53
  A 0.51 0.50 90.0 0 1 437.23 326.04
  Q 437.25 365.40 437.26 404.70
  Q 437.27 415.46 435.77 420.11
  Z"
/>
<rect fill="#000000" x="155.85" y="375.51" width="200.16" height="15.48" rx="7.66"/>
<rect fill="#000000" x="156.00" y="406.33" width="200.00" height="15.42" rx="7.56"/>
</svg>
