<?xml version="1.0" encoding="UTF-8" standalone="no"?>
<!DOCTYPE svg PUBLIC "-//W3C//DTD SVG 1.1//EN" "http://www.w3.org/Graphics/SVG/1.1/DTD/svg11.dtd">
<svg xmlns="http://www.w3.org/2000/svg" version="1.1" viewBox="0 0 784 655">
<g stroke-width="2.00" fill="none" stroke-linecap="butt">
<path stroke="#c8c7c9" vector-effect="non-scaling-stroke" d="
  M 318.00 99.54
  Q 316.98 98.99 315.90 99.30
  Q 314.72 99.64 316.29 100.00"
/>
<path stroke="#7c7d7e" vector-effect="non-scaling-stroke" d="
  M 316.29 100.00
  Q 311.68 100.64 307.24 101.96
  Q 230.98 124.69 183.56 188.31
  Q 167.19 210.28 155.66 238.12
  Q 152.60 245.49 149.55 255.64
  Q 145.25 269.91 144.50 273.50
  Q 125.76 362.88 169.71 440.33
  Q 174.73 449.16 180.38 457.25
  Q 203.39 490.13 235.44 513.06
  Q 296.20 556.54 371.24 556.67
  Q 381.36 556.69 391.23 555.77
  Q 445.01 550.73 490.99 522.80
  Q 499.50 517.64 507.59 511.66
  Q 534.90 491.48 554.69 465.44
  Q 601.57 403.75 602.25 324.75
  Q 602.57 287.14 589.21 248.50"
/>
<path stroke="#9fa09e" vector-effect="non-scaling-stroke" d="
  M 589.21 248.50
  Q 588.93 245.40 587.04 243.00"
/>
<path stroke="#7c7d7e" vector-effect="non-scaling-stroke" d="
  M 587.04 243.00
  Q 567.83 192.27 528.06 155.44
  Q 473.74 105.14 399.99 95.31
  Q 358.57 89.79 318.00 99.54"
/>
<path stroke="#232321" vector-effect="non-scaling-stroke" d="
  M 587.04 243.00
  Q 587.02 246.23 589.21 248.50"
/>
<path stroke="#4c4a4b" vector-effect="non-scaling-stroke" d="
  M 316.29 100.00
  L 318.00 99.54"
/>
<path stroke="#7c7d7e" vector-effect="non-scaling-stroke" d="
  M 256.47 277.97
  Q 277.15 284.95 297.97 291.54
  A 0.98 0.98 -54.1 0 0 298.84 291.40
  L 360.65 246.37
  A 1.03 1.03 72.6 0 0 361.07 245.56
  Q 361.57 206.65 361.01 167.75
  A 1.03 0.99 -73.3 0 0 360.60 166.95
  L 301.66 124.04
  A 0.98 0.97 -36.8 0 0 300.77 123.92
  Q 240.12 145.46 200.70 196.74
  A 0.99 0.98 54.6 0 0 200.55 197.64
  L 223.41 266.97
  A 1.02 1.00 1.4 0 0 224.03 267.61
  Q 230.48 269.97 237.08 271.89
  Q 246.84 274.72 256.47 277.97"
/>
<path stroke="#232321" vector-effect="non-scaling-stroke" d="
  M 523.79 249.00
  Q 524.88 247.70 524.75 246.00"
/>
<path stroke="#232321" vector-effect="non-scaling-stroke" d="
  M 524.75 246.00
  Q 527.17 242.07 527.46 237.50"
/>
<path stroke="#7c7d7e" vector-effect="non-scaling-stroke" d="
  M 527.46 237.50
  L 529.14 232.47"
/>
<path stroke="#4c4a4b" vector-effect="non-scaling-stroke" d="
  M 529.14 232.47
  Q 531.71 226.96 532.75 221.04"
/>
<path stroke="#7c7d7e" vector-effect="non-scaling-stroke" d="
  M 532.75 221.04
  Q 532.98 220.98 533.04 220.75"
/>
<path stroke="#232321" vector-effect="non-scaling-stroke" d="
  M 533.04 220.75
  Q 535.57 216.18 536.16 211.01"
/>
<path stroke="#7c7d7e" vector-effect="non-scaling-stroke" d="
  M 536.16 211.01
  L 540.43 197.96
  A 1.61 1.49 -56.5 0 0 540.20 196.54
  Q 500.23 145.20 440.21 123.83
  A 0.97 0.97 -53.1 0 0 439.30 123.96
  L 380.51 166.75
  A 1.84 1.84 72.1 0 0 379.75 168.24
  L 379.81 245.69
  A 1.00 0.98 18.4 0 0 380.22 246.49
  L 441.83 291.27
  A 1.57 1.57 53.8 0 0 443.24 291.49
  Q 471.71 282.33 499.49 273.23
  Q 499.52 273.22 508.20 270.58
  Q 512.60 269.25 516.94 267.51
  A 1.21 1.10 -2.9 0 0 517.61 266.84
  L 523.79 249.00"
/>
<path stroke="#9fa09e" vector-effect="non-scaling-stroke" d="
  M 536.16 211.01
  Q 533.87 215.69 533.04 220.75"
/>
<path stroke="#c8c7c9" vector-effect="non-scaling-stroke" d="
  M 532.75 221.04
  Q 529.71 226.39 529.14 232.47"
/>
<path stroke="#9fa09e" vector-effect="non-scaling-stroke" d="
  M 527.46 237.50
  Q 525.39 241.52 524.75 246.00"
/>
<path stroke="#9fa09e" vector-effect="non-scaling-stroke" d="
  M 524.75 246.00
  Q 523.54 247.25 523.79 249.00"
/>
<path stroke="#4c4a4b" vector-effect="non-scaling-stroke" d="
  M 247.25 294.46
  L 243.75 293.29"
/>
<path stroke="#7c7d7e" vector-effect="non-scaling-stroke" d="
  M 243.75 293.29
  L 219.51 285.50
  Q 217.79 284.94 216.40 285.95
  L 158.10 328.39
  A 0.98 0.96 -19.0 0 0 157.70 329.19
  Q 159.29 393.69 195.84 446.79
  A 1.07 1.07 72.6 0 0 196.72 447.25
  L 269.73 447.25
  A 1.08 1.07 17.8 0 0 270.60 446.81
  L 316.25 384.11
  A 1.60 1.58 53.9 0 0 316.47 382.67
  L 292.82 309.95
  A 1.41 1.38 0.2 0 0 291.92 309.06
  L 247.25 294.46"
/>
<path stroke="#c8c7c9" vector-effect="non-scaling-stroke" d="
  M 243.75 293.29
  Q 245.08 294.94 247.25 294.46"
/>
<path stroke="#7c7d7e" vector-effect="non-scaling-stroke" d="
  M 471.19 447.06
  L 544.25 447.25
  A 0.97 0.95 -72.3 0 0 545.04 446.83
  Q 581.75 394.01 583.42 329.32
  A 0.96 0.95 -70.9 0 0 583.03 328.51
  L 524.12 285.59
  A 2.01 1.98 -35.6 0 0 522.32 285.31
  L 449.58 308.89
  A 2.22 2.17 -0.5 0 0 448.15 310.31
  L 424.65 383.02
  A 1.00 0.98 -54.7 0 0 424.79 383.90
  L 470.42 446.67
  A 0.96 0.93 -17.4 0 0 471.19 447.06"
/>
<path stroke="#7c7d7e" vector-effect="non-scaling-stroke" d="
  M 308.87 529.07
  Q 370.61 547.07 432.24 529.03
  A 0.72 0.71 -88.3 0 0 432.73 528.56
  Q 438.89 509.79 445.23 490.98
  Q 446.33 487.72 448.89 478.91
  Q 450.66 472.84 452.90 466.92
  Q 454.38 463.02 455.49 459.03
  A 2.03 2.03 35.0 0 0 455.18 457.28
  L 409.70 394.84
  A 1.47 1.45 71.5 0 0 408.53 394.25
  L 332.56 394.31
  A 1.74 1.69 -71.4 0 0 331.18 395.02
  L 285.95 457.08
  A 2.24 2.23 -36.1 0 0 285.63 459.10
  L 308.12 528.35
  A 1.10 1.09 -0.9 0 0 308.87 529.07"
/>
</g>
<path fill="#f8fafb" d="
  M 0.00 0.00
  L 784.00 0.00
  L 784.00 655.00
  L 0.00 655.00
  L 0.00 0.00
  Z
  M 318.00 99.54
  Q 316.98 98.99 315.90 99.30
  Q 314.72 99.64 316.29 100.00
  Q 311.68 100.64 307.24 101.96
  Q 230.98 124.69 183.56 188.31
  Q 167.19 210.28 155.66 238.12
  Q 152.60 245.49 149.55 255.64
  Q 145.25 269.91 144.50 273.50
  Q 125.76 362.88 169.71 440.33
  Q 174.73 449.16 180.38 457.25
  Q 203.39 490.13 235.44 513.06
  Q 296.20 556.54 371.24 556.67
  Q 381.36 556.69 391.23 555.77
  Q 445.01 550.73 490.99 522.80
  Q 499.50 517.64 507.59 511.66
  Q 534.90 491.48 554.69 465.44
  Q 601.57 403.75 602.25 324.75
  Q 602.57 287.14 589.21 248.50
  Q 588.93 245.40 587.04 243.00
  Q 567.83 192.27 528.06 155.44
  Q 473.74 105.14 399.99 95.31
  Q 358.57 89.79 318.00 99.54
  Z"
/>
<path fill="#000000" d="
  M 587.04 243.00
  Q 587.02 246.23 589.21 248.50
  Q 602.57 287.14 602.25 324.75
  Q 601.57 403.75 554.69 465.44
  Q 534.90 491.48 507.59 511.66
  Q 499.50 517.64 490.99 522.80
  Q 445.01 550.73 391.23 555.77
  Q 381.36 556.69 371.24 556.67
  Q 296.20 556.54 235.44 513.06
  Q 203.39 490.13 180.38 457.25
  Q 174.73 449.16 169.71 440.33
  Q 125.76 362.88 144.50 273.50
  Q 145.25 269.91 149.55 255.64
  Q 152.60 245.49 155.66 238.12
  Q 167.19 210.28 183.56 188.31
  Q 230.98 124.69 307.24 101.96
  Q 311.68 100.64 316.29 100.00
  L 318.00 99.54
  Q 358.57 89.79 399.99 95.31
  Q 473.74 105.14 528.06 155.44
  Q 567.83 192.27 587.04 243.00
  Z
  M 256.47 277.97
  Q 277.15 284.95 297.97 291.54
  A 0.98 0.98 -54.1 0 0 298.84 291.40
  L 360.65 246.37
  A 1.03 1.03 72.6 0 0 361.07 245.56
  Q 361.57 206.65 361.01 167.75
  A 1.03 0.99 -73.3 0 0 360.60 166.95
  L 301.66 124.04
  A 0.98 0.97 -36.8 0 0 300.77 123.92
  Q 240.12 145.46 200.70 196.74
  A 0.99 0.98 54.6 0 0 200.55 197.64
  L 223.41 266.97
  A 1.02 1.00 1.4 0 0 224.03 267.61
  Q 230.48 269.97 237.08 271.89
  Q 246.84 274.72 256.47 277.97
  Z
  M 523.79 249.00
  Q 524.88 247.70 524.75 246.00
  Q 527.17 242.07 527.46 237.50
  L 529.14 232.47
  Q 531.71 226.96 532.75 221.04
  Q 532.98 220.98 533.04 220.75
  Q 535.57 216.18 536.16 211.01
  L 540.43 197.96
  A 1.61 1.49 -56.5 0 0 540.20 196.54
  Q 500.23 145.20 440.21 123.83
  A 0.97 0.97 -53.1 0 0 439.30 123.96
  L 380.51 166.75
  A 1.84 1.84 72.1 0 0 379.75 168.24
  L 379.81 245.69
  A 1.00 0.98 18.4 0 0 380.22 246.49
  L 441.83 291.27
  A 1.57 1.57 53.8 0 0 443.24 291.49
  Q 471.71 282.33 499.49 273.23
  Q 499.52 273.22 508.20 270.58
  Q 512.60 269.25 516.94 267.51
  A 1.21 1.10 -2.9 0 0 517.61 266.84
  L 523.79 249.00
  Z
  M 247.25 294.46
  L 243.75 293.29
  L 219.51 285.50
  Q 217.79 284.94 216.40 285.95
  L 158.10 328.39
  A 0.98 0.96 -19.0 0 0 157.70 329.19
  Q 159.29 393.69 195.84 446.79
  A 1.07 1.07 72.6 0 0 196.72 447.25
  L 269.73 447.25
  A 1.08 1.07 17.8 0 0 270.60 446.81
  L 316.25 384.11
  A 1.60 1.58 53.9 0 0 316.47 382.67
  L 292.82 309.95
  A 1.41 1.38 0.2 0 0 291.92 309.06
  L 247.25 294.46
  Z
  M 471.19 447.06
  L 544.25 447.25
  A 0.97 0.95 -72.3 0 0 545.04 446.83
  Q 581.75 394.01 583.42 329.32
  A 0.96 0.95 -70.9 0 0 583.03 328.51
  L 524.12 285.59
  A 2.01 1.98 -35.6 0 0 522.32 285.31
  L 449.58 308.89
  A 2.22 2.17 -0.5 0 0 448.15 310.31
  L 424.65 383.02
  A 1.00 0.98 -54.7 0 0 424.79 383.90
  L 470.42 446.67
  A 0.96 0.93 -17.4 0 0 471.19 447.06
  Z
  M 308.87 529.07
  Q 370.61 547.07 432.24 529.03
  A 0.72 0.71 -88.3 0 0 432.73 528.56
  Q 438.89 509.79 445.23 490.98
  Q 446.33 487.72 448.89 478.91
  Q 450.66 472.84 452.90 466.92
  Q 454.38 463.02 455.49 459.03
  A 2.03 2.03 35.0 0 0 455.18 457.28
  L 409.70 394.84
  A 1.47 1.45 71.5 0 0 408.53 394.25
  L 332.56 394.31
  A 1.74 1.69 -71.4 0 0 331.18 395.02
  L 285.95 457.08
  A 2.24 2.23 -36.1 0 0 285.63 459.10
  L 308.12 528.35
  A 1.10 1.09 -0.9 0 0 308.87 529.07
  Z"
/>
<path fill="#979496" d="
  M 318.00 99.54
  L 316.29 100.00
  Q 314.72 99.64 315.90 99.30
  Q 316.98 98.99 318.00 99.54
  Z"
/>
<path fill="#f8fafb" d="
  M 256.47 277.97
  Q 246.84 274.72 237.08 271.89
  Q 230.48 269.97 224.03 267.61
  A 1.02 1.00 1.4 0 1 223.41 266.97
  L 200.55 197.64
  A 0.99 0.98 54.6 0 1 200.70 196.74
  Q 240.12 145.46 300.77 123.92
  A 0.98 0.97 -36.8 0 1 301.66 124.04
  L 360.60 166.95
  A 1.03 0.99 -73.3 0 1 361.01 167.75
  Q 361.57 206.65 361.07 245.56
  A 1.03 1.03 72.6 0 1 360.65 246.37
  L 298.84 291.40
  A 0.98 0.98 -54.1 0 1 297.97 291.54
  Q 277.15 284.95 256.47 277.97
  Z"
/>
<path fill="#f8fafb" d="
  M 536.16 211.01
  Q 533.87 215.69 533.04 220.75
  Q 532.98 220.98 532.75 221.04
  Q 529.71 226.39 529.14 232.47
  L 527.46 237.50
  Q 525.39 241.52 524.75 246.00
  Q 523.54 247.25 523.79 249.00
  L 517.61 266.84
  A 1.21 1.10 -2.9 0 1 516.94 267.51
  Q 512.60 269.25 508.20 270.58
  Q 499.52 273.22 499.49 273.23
  Q 471.71 282.33 443.24 291.49
  A 1.57 1.57 53.8 0 1 441.83 291.27
  L 380.22 246.49
  A 1.00 0.98 18.4 0 1 379.81 245.69
  L 379.75 168.24
  A 1.84 1.84 72.1 0 1 380.51 166.75
  L 439.30 123.96
  A 0.97 0.97 -53.3 0 1 440.21 123.83
  Q 500.23 145.20 540.20 196.54
  A 1.61 1.49 -56.5 0 1 540.43 197.96
  L 536.16 211.01
  Z"
/>
<path fill="#464641" d="
  M 536.16 211.01
  Q 535.57 216.18 533.04 220.75
  Q 533.87 215.69 536.16 211.01
  Z"
/>
<path fill="#979496" d="
  M 532.75 221.04
  Q 531.71 226.96 529.14 232.47
  Q 529.71 226.39 532.75 221.04
  Z"
/>
<path fill="#464641" d="
  M 527.46 237.50
  Q 527.17 242.07 524.75 246.00
  Q 525.39 241.52 527.46 237.50
  Z"
/>
<path fill="#464641" d="
  M 587.04 243.00
  Q 588.93 245.40 589.21 248.50
  Q 587.02 246.23 587.04 243.00
  Z"
/>
<path fill="#464641" d="
  M 524.75 246.00
  Q 524.88 247.70 523.79 249.00
  Q 523.54 247.25 524.75 246.00
  Z"
/>
<path fill="#f8fafb" d="
  M 243.75 293.29
  Q 245.08 294.94 247.25 294.46
  L 291.92 309.06
  A 1.41 1.38 0.2 0 1 292.82 309.95
  L 316.47 382.67
  A 1.60 1.58 53.9 0 1 316.25 384.11
  L 270.60 446.81
  A 1.08 1.07 17.8 0 1 269.73 447.25
  L 196.72 447.25
  A 1.07 1.07 72.6 0 1 195.84 446.79
  Q 159.29 393.69 157.70 329.19
  A 0.98 0.96 -19.0 0 1 158.10 328.39
  L 216.40 285.95
  Q 217.79 284.94 219.51 285.50
  L 243.75 293.29
  Z"
/>
<path fill="#f8fafb" d="
  M 471.19 447.06
  A 0.96 0.93 -17.4 0 1 470.42 446.67
  L 424.79 383.90
  A 1.00 0.98 -54.7 0 1 424.65 383.02
  L 448.15 310.31
  A 2.22 2.17 -0.5 0 1 449.58 308.89
  L 522.32 285.31
  A 2.01 1.98 -35.6 0 1 524.12 285.59
  L 583.03 328.51
  A 0.96 0.95 -70.9 0 1 583.42 329.32
  Q 581.75 394.01 545.04 446.83
  A 0.97 0.95 -72.3 0 1 544.25 447.25
  L 471.19 447.06
  Z"
/>
<path fill="#979496" d="
  M 243.75 293.29
  L 247.25 294.46
  Q 245.08 294.94 243.75 293.29
  Z"
/>
<path fill="#f8fafb" d="
  M 308.87 529.07
  A 1.10 1.09 -0.9 0 1 308.12 528.35
  L 285.63 459.10
  A 2.24 2.23 -36.1 0 1 285.95 457.08
  L 331.18 395.02
  A 1.74 1.69 -71.4 0 1 332.56 394.31
  L 408.53 394.25
  A 1.47 1.45 71.5 0 1 409.70 394.84
  L 455.18 457.28
  A 2.03 2.03 35.0 0 1 455.49 459.03
  Q 454.38 463.02 452.90 466.92
  Q 450.66 472.84 448.89 478.91
  Q 446.33 487.72 445.23 490.98
  Q 438.89 509.79 432.73 528.56
  A 0.72 0.71 -88.3 0 1 432.24 529.03
  Q 370.61 547.07 308.87 529.07
  Z"
/>
</svg>
